# Blender v3.1.2 OBJ File: ''
# www.blender.org
mtllib arrow.mtl
o Arrow5_Arrow5_0
v 0.384405 0.086605 -0.009770
v 0.389017 0.086605 -0.004803
v 0.389017 0.022399 -0.004803
v 0.384405 0.022399 -0.009770
v -0.389017 0.086605 -0.078816
v -0.388043 0.086605 -0.087102
v -0.388043 0.022399 -0.087102
v -0.389017 0.022399 -0.078816
v -0.383025 0.086605 -0.093375
v -0.383025 0.022399 -0.093375
v -0.373742 0.086605 -0.095884
v -0.373742 0.022399 -0.095884
v 0.138190 0.086605 -0.095884
v 0.138190 0.022399 -0.095884
v 0.140240 0.086605 -0.150816
v 0.140240 0.022399 -0.150816
v 0.138832 0.086605 -0.096526
v 0.138832 0.086605 -0.149938
v 0.138832 0.022399 -0.149938
v 0.138832 0.022399 -0.096526
v 0.138832 0.086605 -0.149938
v 0.138832 0.022399 -0.149938
v 0.389017 0.086605 0.004803
v 0.389017 0.022399 0.004803
v 0.384405 0.086605 0.009770
v 0.384405 0.022399 0.009770
v -0.389017 0.022399 0.078816
v -0.389017 0.086605 0.078816
v -0.388043 0.022399 0.087102
v -0.388043 0.086605 0.087102
v -0.383025 0.022399 0.093375
v -0.383025 0.086605 0.093375
v -0.373742 0.022399 0.095884
v -0.373742 0.086605 0.095884
v -0.373742 0.086605 0.095884
v -0.373742 0.022399 0.095884
v 0.138190 0.022399 0.095884
v 0.138190 0.086605 0.095884
v 0.140240 0.086605 0.150816
v 0.140240 0.022399 0.150816
v 0.138832 0.086605 0.096526
v 0.138832 0.022399 0.096526
v 0.138832 0.022399 0.149938
v 0.138832 0.086605 0.149938
v 0.138832 0.086605 0.149938
v 0.138832 0.022399 0.149938
v 0.140240 0.022399 0.150816
v 0.140240 0.086605 0.150816
v -0.389017 0.022399 -0.078816
v -0.375304 0.022399 -0.077512
v -0.375304 0.022399 0.077512
v -0.389017 0.022399 0.078816
v -0.389017 0.086605 0.078816
v -0.375304 0.086605 0.077512
v -0.375304 0.086605 -0.077512
v -0.389017 0.086605 -0.078816
v -0.388043 0.086605 -0.087102
v -0.374428 0.086605 -0.085739
v -0.388043 0.086605 0.087102
v -0.374428 0.086605 0.085740
v 0.384405 0.022399 0.009770
v 0.156533 0.022399 0.032583
v 0.159497 0.022399 0.026637
v 0.389017 0.022399 0.004803
v -0.388043 0.022399 -0.087102
v -0.374428 0.022399 -0.085740
v 0.138832 0.086605 -0.096526
v 0.138832 0.022399 -0.096526
v 0.138832 0.022399 0.096526
v 0.138832 0.086605 0.096526
v 0.389017 0.022399 -0.004803
v 0.159497 0.022399 -0.026637
v 0.389017 0.086605 0.004803
v 0.389017 0.086605 -0.004803
v 0.159497 0.086605 -0.026637
v 0.159497 0.086605 0.026637
v 0.384405 0.086605 -0.009770
v 0.156533 0.086605 -0.032583
v 0.384405 0.086605 0.009770
v 0.156533 0.086605 0.032583
v -0.374428 0.022399 0.085739
v 0.384405 0.022399 -0.009770
v 0.156533 0.022399 -0.032583
v 0.138832 0.022399 -0.149938
v 0.140240 0.022399 -0.150816
v 0.140240 0.086605 -0.150816
v 0.138832 0.086605 -0.149938
v 0.138832 0.086605 0.149938
v 0.140240 0.086605 0.150816
v 0.140240 0.022399 0.150816
v 0.138832 0.022399 0.149938
v 0.138832 0.022399 0.096526
v 0.138190 0.022399 0.095884
v 0.138190 0.086605 0.095884
v 0.138832 0.086605 0.096526
v 0.138832 0.086605 -0.096526
v 0.138190 0.086605 -0.095884
v 0.138190 0.022399 -0.095884
v 0.138832 0.022399 -0.096526
v -0.388043 0.022399 0.087102
v -0.373742 0.086605 -0.095884
v -0.383025 0.086605 -0.093375
v -0.383025 0.022399 -0.093375
v -0.373742 0.022399 -0.095884
v -0.383025 0.086605 0.093375
v -0.373742 0.086605 0.095884
v -0.373742 0.022399 0.095884
v -0.383025 0.022399 0.093375
vt 0.010201 0.090120
vt 0.077533 0.090120
vt 0.077533 0.009181
vt 0.010201 0.009181
vt 0.078491 0.177655
vt 0.078491 0.096716
vt 0.011159 0.096716
vt 0.011159 0.177656
vt 0.987027 0.699793
vt 0.969740 0.701438
vt 0.969740 0.896863
vt 0.987027 0.898508
vt 0.006224 0.571655
vt 0.023511 0.570011
vt 0.023511 0.374585
vt 0.006224 0.372941
vt 0.007453 0.362495
vt 0.024615 0.364213
vt 0.007453 0.582101
vt 0.024615 0.580382
vt 0.012039 0.811467
vt 0.299298 0.840225
vt 0.295561 0.832729
vt 0.006224 0.805205
vt 0.985798 0.689348
vt 0.968636 0.691066
vt 0.006224 0.793096
vt 0.295561 0.765572
vt 0.987027 0.478352
vt 0.987027 0.466244
vt 0.697690 0.438719
vt 0.697690 0.505877
vt 0.981212 0.459982
vt 0.693953 0.431223
vt 0.981212 0.484614
vt 0.693953 0.513373
vt 0.968636 0.907235
vt 0.012039 0.786835
vt 0.299298 0.758076
vt 0.321612 0.610137
vt 0.319837 0.609030
vt 0.673415 0.282177
vt 0.671639 0.283284
vt 0.671639 0.661312
vt 0.673415 0.662418
vt 0.319837 0.989271
vt 0.321612 0.988164
vt 0.321612 0.920832
vt 0.322422 0.920023
vt 0.670830 0.593170
vt 0.671639 0.593980
vt 0.671639 0.350616
vt 0.670830 0.351426
vt 0.322422 0.678278
vt 0.321612 0.677469
vt 0.985798 0.908953
vt 0.025480 0.351426
vt 0.013778 0.354588
vt 0.979473 0.681441
vt 0.967771 0.678278
vt 0.013778 0.590007
vt 0.025480 0.593170
vt 0.967771 0.920023
vt 0.979473 0.916860
vt 0.387106 0.090120
vt 0.393368 0.090120
vt 0.393368 0.009181
vt 0.387106 0.009181
vt 0.236908 0.268617
vt 0.247353 0.268617
vt 0.247353 0.187678
vt 0.236908 0.187678
vt 0.255260 0.268617
vt 0.255260 0.187678
vt 0.266962 0.268617
vt 0.266962 0.187678
vt 0.912311 0.268617
vt 0.912311 0.187678
vt 0.079308 0.090120
vt 0.079308 0.009181
vt 0.077533 0.090120
vt 0.077533 0.009181
vt 0.405477 0.090120
vt 0.405477 0.009181
vt 0.411738 0.090120
vt 0.411738 0.009181
vt 0.038193 0.187678
vt 0.038193 0.268617
vt 0.027748 0.187678
vt 0.027748 0.268617
vt 0.019841 0.187678
vt 0.019841 0.268617
vt 0.008139 0.187678
vt 0.008139 0.268617
vt 0.724649 0.177655
vt 0.724649 0.096716
vt 0.079300 0.096716
vt 0.079300 0.177655
vt 0.719536 0.090120
vt 0.719536 0.009181
vt 0.011159 0.177656
vt 0.011159 0.096716
vt 0.009383 0.096716
vt 0.009383 0.177656
vt 0.913121 0.268617
vt 0.913121 0.187678
vt 0.078491 0.096716
vt 0.078491 0.177655
vn -1.0000 0.0000 0.0000
vn 0.0000 -1.0000 -0.0000
vn 0.0000 1.0000 0.0000
vn 0.6234 0.0000 -0.7819
vn 0.9308 -0.0000 -0.3655
vn -0.9983 0.0000 -0.0585
vn -0.9226 0.0000 -0.3857
vn -0.5480 -0.0000 -0.8365
vn -0.1316 0.0000 -0.9913
vn -0.3827 0.0000 -0.9239
vn -0.0168 0.0000 -0.9999
vn -0.5290 0.0000 -0.8486
vn 0.9308 -0.0000 0.3655
vn 0.6234 -0.0000 0.7819
vn -0.9983 -0.0000 0.0585
vn -0.9226 -0.0000 0.3857
vn -0.5480 -0.0000 0.8365
vn -0.1316 0.0000 0.9913
vn -0.3827 -0.0000 0.9239
vn -0.0168 -0.0000 0.9999
vn -0.5290 0.0000 0.8486
vn -0.7071 0.0000 -0.7071
vn -0.7071 -0.0000 0.7071
usemtl Arrow5
s off
f 17/1/1 18/2/1 19/3/1
f 17/1/1 19/3/1 20/4/1
f 41/5/1 42/6/1 43/7/1
f 41/5/1 43/7/1 44/8/1
f 49/9/2 50/10/2 51/11/2
f 49/9/2 51/11/2 52/12/2
f 53/13/3 54/14/3 55/15/3
f 53/13/3 55/15/3 56/16/3
f 57/17/3 56/16/3 55/15/3
f 57/17/3 55/15/3 58/18/3
f 59/19/3 60/20/3 54/14/3
f 59/19/3 54/14/3 53/13/3
f 61/21/2 62/22/2 63/23/2
f 61/21/2 63/23/2 64/24/2
f 65/25/2 66/26/2 50/10/2
f 65/25/2 50/10/2 49/9/2
f 71/27/2 64/24/2 63/23/2
f 71/27/2 63/23/2 72/28/2
f 73/29/3 74/30/3 75/31/3
f 73/29/3 75/31/3 76/32/3
f 75/31/3 74/30/3 77/33/3
f 75/31/3 77/33/3 78/34/3
f 79/35/3 73/29/3 76/32/3
f 79/35/3 76/32/3 80/36/3
f 62/22/2 81/37/2 51/11/2
f 62/22/2 51/11/2 63/23/2
f 82/38/2 71/27/2 72/28/2
f 82/38/2 72/28/2 83/39/2
f 83/39/2 84/40/2 85/41/2
f 83/39/2 85/41/2 82/38/2
f 78/34/3 77/33/3 86/42/3
f 78/34/3 86/42/3 87/43/3
f 80/36/3 88/44/3 89/45/3
f 80/36/3 89/45/3 79/35/3
f 62/22/2 61/21/2 90/46/2
f 62/22/2 90/46/2 91/47/2
f 62/22/2 91/47/2 92/48/2
f 62/22/2 92/48/2 93/49/2
f 80/36/3 94/50/3 95/51/3
f 80/36/3 95/51/3 88/44/3
f 78/34/3 87/43/3 96/52/3
f 78/34/3 96/52/3 97/53/3
f 83/39/2 98/54/2 99/55/2
f 83/39/2 99/55/2 84/40/2
f 72/28/2 63/23/2 51/11/2
f 72/28/2 51/11/2 50/10/2
f 76/32/3 75/31/3 55/15/3
f 76/32/3 55/15/3 54/14/3
f 55/15/3 75/31/3 78/34/3
f 55/15/3 78/34/3 58/18/3
f 80/36/3 76/32/3 54/14/3
f 80/36/3 54/14/3 60/20/3
f 83/39/2 72/28/2 50/10/2
f 83/39/2 50/10/2 66/26/2
f 100/56/2 52/12/2 51/11/2
f 100/56/2 51/11/2 81/37/2
f 58/18/3 101/57/3 102/58/3
f 58/18/3 102/58/3 57/17/3
f 66/26/2 65/25/2 103/59/2
f 66/26/2 103/59/2 104/60/2
f 60/20/3 59/19/3 105/61/3
f 60/20/3 105/61/3 106/62/3
f 81/37/2 107/63/2 108/64/2
f 81/37/2 108/64/2 100/56/2
f 58/18/3 78/34/3 97/53/3
f 58/18/3 97/53/3 101/57/3
f 60/20/3 106/62/3 94/50/3
f 60/20/3 94/50/3 80/36/3
f 81/37/2 62/22/2 93/49/2
f 81/37/2 93/49/2 107/63/2
f 66/26/2 104/60/2 98/54/2
f 66/26/2 98/54/2 83/39/2
s 1
f 1/65/4 2/66/5 3/67/5
f 1/65/4 3/67/5 4/68/4
f 5/69/6 6/70/7 7/71/7
f 5/69/6 7/71/7 8/72/6
f 6/70/7 9/73/8 10/74/8
f 6/70/7 10/74/8 7/71/7
f 9/73/8 11/75/9 12/76/9
f 9/73/8 12/76/9 10/74/8
f 11/75/9 13/77/10 14/78/10
f 11/75/9 14/78/10 12/76/9
f 15/79/11 1/65/4 4/68/4
f 15/79/11 4/68/4 16/80/11
f 21/81/12 15/79/11 16/80/11
f 21/81/12 16/80/11 22/82/12
f 23/83/13 24/84/13 3/67/5
f 23/83/13 3/67/5 2/66/5
f 25/85/14 26/86/14 24/84/13
f 25/85/14 24/84/13 23/83/13
f 5/69/6 8/72/6 27/87/15
f 5/69/6 27/87/15 28/88/15
f 28/88/15 27/87/15 29/89/16
f 28/88/15 29/89/16 30/90/16
f 30/90/16 29/89/16 31/91/17
f 30/90/16 31/91/17 32/92/17
f 32/92/17 31/91/17 33/93/18
f 32/92/17 33/93/18 34/94/18
f 35/95/18 36/96/18 37/97/19
f 35/95/18 37/97/19 38/98/19
f 39/99/20 40/100/20 26/86/14
f 39/99/20 26/86/14 25/85/14
f 45/101/21 46/102/21 47/103/20
f 45/101/21 47/103/20 48/104/20
f 13/77/10 67/105/22 68/106/22
f 13/77/10 68/106/22 14/78/10
f 37/97/19 69/107/23 70/108/23
f 37/97/19 70/108/23 38/98/19
